<?xml version="1.0" standalone="no"?>
<!DOCTYPE svg PUBLIC "-//W3C//DTD SVG 20010904//EN"
 "http://www.w3.org/TR/2001/REC-SVG-20010904/DTD/svg10.dtd">
<svg version="1.0" xmlns="http://www.w3.org/2000/svg"
 width="200.000000pt" height="200.000000pt" viewBox="0 0 200.000000 200.000000"
 preserveAspectRatio="xMidYMid meet">
<metadata>
Created by potrace 1.11, written by Peter Selinger 2001-2013
</metadata>
<g transform="translate(0.000000,200.000000) scale(0.100000,-0.100000)"
fill="#000000" stroke="none">
<path d="M100 1000 l0 -500 130 0 130 0 0 205 0 205 220 0 220 0 0 95 0 95
-220 0 -220 0 0 105 0 105 220 0 220 0 0 95 0 95 -350 0 -350 0 0 -500z"/>
<path d="M920 1405 l0 -95 180 0 180 0 0 -405 0 -405 130 0 130 0 0 405 0 405
180 0 180 0 0 95 0 95 -490 0 -490 0 0 -95z"/>
</g>
</svg>
