<?xml version="1.0" encoding="UTF-8" standalone="no"?>
<!DOCTYPE svg PUBLIC "-//W3C//DTD SVG 1.1//EN" "http://www.w3.org/Graphics/SVG/1.1/DTD/svg11.dtd">
<svg width="100%" height="100%" viewBox="0 0 103 30" version="1.1" xmlns="http://www.w3.org/2000/svg" xmlns:xlink="http://www.w3.org/1999/xlink" xml:space="preserve" xmlns:serif="http://www.serif.com/" style="fill-rule:evenodd;clip-rule:evenodd;stroke-linejoin:round;stroke-miterlimit:2;">
    <g id="FACEBOOK" transform="matrix(1,0,0,1,-2.45341,8.60423e-16)">
        <g transform="matrix(1.60039,0,0,1.45621,2.75246,0.208333)">
            <path d="M64.172,10.158C64.172,15.843 59.973,20.458 54.8,20.458L9.186,20.458C4.013,20.458 -0.187,15.843 -0.187,10.158C-0.187,4.473 4.013,-0.143 9.186,-0.143L54.8,-0.143C59.973,-0.143 64.172,4.473 64.172,10.158Z" style="fill:rgb(24,119,242);"/>
        </g>
        <g transform="matrix(1.5,0,0,1.5,-2.2268,0.874116)">
            <path d="M24.471,11.215L26.498,11.018C26.62,11.699 26.868,12.198 27.241,12.517C27.614,12.836 28.117,12.996 28.75,12.996C29.421,12.996 29.927,12.854 30.267,12.57C30.607,12.286 30.777,11.954 30.777,11.574C30.777,11.33 30.705,11.123 30.562,10.951C30.419,10.78 30.169,10.631 29.813,10.505C29.569,10.42 29.013,10.27 28.145,10.054C27.028,9.777 26.245,9.437 25.794,9.034C25.161,8.466 24.844,7.774 24.844,6.958C24.844,6.432 24.993,5.941 25.291,5.483C25.589,5.026 26.018,4.677 26.579,4.438C27.14,4.199 27.816,4.079 28.609,4.079C29.904,4.079 30.879,4.363 31.533,4.931C32.188,5.499 32.532,6.256 32.564,7.204L30.481,7.295C30.392,6.765 30.201,6.384 29.908,6.152C29.615,5.92 29.175,5.803 28.588,5.803C27.983,5.803 27.509,5.928 27.167,6.176C26.946,6.336 26.836,6.549 26.836,6.817C26.836,7.061 26.939,7.27 27.146,7.443C27.408,7.664 28.046,7.894 29.06,8.133C30.073,8.372 30.823,8.62 31.308,8.875C31.794,9.131 32.174,9.481 32.448,9.924C32.723,10.367 32.86,10.915 32.86,11.567C32.86,12.158 32.696,12.712 32.367,13.228C32.039,13.744 31.575,14.128 30.974,14.379C30.373,14.63 29.625,14.755 28.729,14.755C27.425,14.755 26.423,14.454 25.724,13.851C25.025,13.248 24.607,12.37 24.471,11.215Z" style="fill:white;fill-rule:nonzero;"/>
            <path d="M36.209,4.255L36.209,8.048C36.847,7.302 37.609,6.929 38.496,6.929C38.951,6.929 39.361,7.014 39.727,7.183C40.093,7.352 40.369,7.568 40.554,7.83C40.74,8.093 40.866,8.384 40.934,8.703C41.002,9.022 41.036,9.517 41.036,10.188L41.036,14.572L39.059,14.572L39.059,10.624C39.059,9.841 39.021,9.343 38.946,9.132C38.871,8.921 38.739,8.753 38.549,8.629C38.358,8.505 38.12,8.443 37.834,8.443C37.506,8.443 37.213,8.522 36.954,8.682C36.696,8.841 36.508,9.082 36.388,9.403C36.268,9.725 36.209,10.2 36.209,10.828L36.209,14.572L34.231,14.572L34.231,4.255L36.209,4.255Z" style="fill:white;fill-rule:nonzero;"/>
            <path d="M44.16,9.379L42.365,9.055C42.567,8.332 42.914,7.797 43.407,7.45C43.899,7.103 44.631,6.929 45.602,6.929C46.484,6.929 47.141,7.034 47.573,7.243C48.004,7.451 48.308,7.717 48.484,8.038C48.66,8.359 48.748,8.949 48.748,9.808L48.727,12.116C48.727,12.773 48.759,13.257 48.822,13.569C48.885,13.881 49.004,14.216 49.177,14.572L47.221,14.572C47.169,14.441 47.106,14.246 47.031,13.988C46.998,13.871 46.975,13.793 46.96,13.756C46.623,14.084 46.261,14.331 45.877,14.495C45.492,14.659 45.081,14.741 44.645,14.741C43.876,14.741 43.269,14.532 42.826,14.115C42.383,13.697 42.161,13.169 42.161,12.531C42.161,12.109 42.262,11.733 42.463,11.402C42.665,11.071 42.948,10.818 43.312,10.642C43.675,10.466 44.199,10.312 44.884,10.181C45.809,10.007 46.449,9.845 46.806,9.695L46.806,9.498C46.806,9.118 46.712,8.847 46.524,8.685C46.336,8.523 45.982,8.443 45.461,8.443C45.11,8.443 44.835,8.512 44.638,8.65C44.441,8.789 44.282,9.031 44.16,9.379ZM46.806,10.983C46.552,11.068 46.151,11.168 45.602,11.286C45.053,11.403 44.694,11.518 44.525,11.631C44.267,11.814 44.138,12.046 44.138,12.327C44.138,12.604 44.242,12.843 44.448,13.045C44.655,13.247 44.917,13.348 45.236,13.348C45.593,13.348 45.933,13.23 46.257,12.996C46.496,12.818 46.653,12.599 46.728,12.341C46.78,12.172 46.806,11.851 46.806,11.377L46.806,10.983Z" style="fill:white;fill-rule:nonzero;"/>
            <path d="M52.23,14.572L50.253,14.572L50.253,7.098L52.089,7.098L52.089,8.161C52.404,7.659 52.686,7.328 52.937,7.169C53.188,7.009 53.474,6.929 53.793,6.929C54.243,6.929 54.677,7.054 55.094,7.302L54.482,9.027C54.149,8.811 53.839,8.703 53.553,8.703C53.276,8.703 53.042,8.779 52.85,8.932C52.657,9.084 52.506,9.36 52.396,9.759C52.285,10.157 52.23,10.992 52.23,12.264L52.23,14.572Z" style="fill:white;fill-rule:nonzero;"/>
            <path d="M59.914,12.194L61.884,12.524C61.631,13.247 61.231,13.797 60.684,14.175C60.138,14.552 59.454,14.741 58.633,14.741C57.333,14.741 56.372,14.317 55.748,13.467C55.255,12.787 55.009,11.928 55.009,10.892C55.009,9.653 55.332,8.683 55.98,7.982C56.627,7.28 57.446,6.929 58.436,6.929C59.548,6.929 60.425,7.297 61.068,8.031C61.711,8.765 62.018,9.89 61.99,11.405L57.035,11.405C57.05,11.992 57.209,12.448 57.514,12.774C57.819,13.1 58.199,13.263 58.654,13.263C58.964,13.263 59.224,13.179 59.435,13.01C59.646,12.841 59.806,12.569 59.914,12.194ZM60.026,10.195C60.012,9.623 59.865,9.187 59.583,8.889C59.302,8.592 58.959,8.443 58.556,8.443C58.124,8.443 57.767,8.6 57.486,8.914C57.204,9.228 57.066,9.655 57.071,10.195L60.026,10.195Z" style="fill:white;fill-rule:nonzero;"/>
        </g>
        <g transform="matrix(0.2,0,0,0.2,23.3517,5)">
            <path d="M0,100L-20.69,100L-20.69,50.005L-31.028,50.005L-31.028,32.762L-20.69,32.762L-20.69,22.419C-20.69,8.37 -14.839,0 1.74,0L15.541,0L15.541,17.233L6.922,17.233C0.469,17.233 0.033,19.638 0.033,24.135L0,32.762L15.642,32.762L13.813,50.005L0,50.005L0,100Z" style="fill:white;fill-rule:nonzero;"/>
        </g>
    </g>
</svg>