<?xml version="1.0" encoding="utf-8"?>
<!-- Generator: Adobe Illustrator 15.0.0, SVG Export Plug-In . SVG Version: 6.00 Build 0)  -->
<!DOCTYPE svg PUBLIC "-//W3C//DTD SVG 1.1//EN" "http://www.w3.org/Graphics/SVG/1.1/DTD/svg11.dtd">
<svg version="1.1" id="Layer_1" xmlns="http://www.w3.org/2000/svg" xmlns:xlink="http://www.w3.org/1999/xlink" x="0px" y="0px"
	 width="400px" height="400px" viewBox="0 0 400 400" enable-background="new 0 0 400 400" xml:space="preserve">
<circle fill="#FFFFFF" cx="200" cy="200" r="200"/>
<g>
	<path fill="#C92228" d="M200,0C89.6,0,0,89.5,0,200c0,81.9,49.2,152.2,119.7,183.2c-0.601-14-0.101-30.7,3.5-45.9
		c3.8-16.2,25.699-109,25.699-109s-6.399-12.8-6.399-31.6c0-29.6,17.2-51.8,38.6-51.8c18.2,0,27,13.7,27,30
		c0,18.3-11.7,45.6-17.7,71C185.4,267.1,201,284.4,222,284.4c37.899,0,63.399-48.7,63.399-106.3c0-43.8-29.5-76.6-83.199-76.6
		c-60.7,0-98.5,45.2-98.5,95.8c0,17.4,5.1,29.7,13.199,39.2c3.7,4.4,4.2,6.1,2.9,11.1c-1,3.7-3.2,12.5-4.1,16
		c-1.301,5.101-5.4,6.9-10,5c-27.9-11.399-41-42-41-76.399C64.7,135.4,112.6,67.3,207.6,67.3c76.4,0,126.6,55.3,126.6,114.6
		c0,78.5-43.6,137.1-107.899,137.1c-21.6,0-41.9-11.7-48.9-24.9c0,0-11.6,46.101-14.1,55c-4.2,15.4-12.5,30.801-20.1,42.801
		c18,5.3,37,8.199,56.699,8.199c110.4,0,200-89.5,200-200C400,89.5,310.5,0,200,0z"/>
</g>
</svg>
