<?xml version="1.0" encoding="utf-8"?>
<!-- Generator: Adobe Illustrator 15.0.0, SVG Export Plug-In . SVG Version: 6.00 Build 0)  -->
<!DOCTYPE svg PUBLIC "-//W3C//DTD SVG 1.1//EN" "http://www.w3.org/Graphics/SVG/1.1/DTD/svg11.dtd">
<svg version="1.1" id="Layer_1" xmlns="http://www.w3.org/2000/svg" xmlns:xlink="http://www.w3.org/1999/xlink" x="0px" y="0px"
	 width="400px" height="400px" viewBox="0 0 400 400" enable-background="new 0 0 400 400" xml:space="preserve">
<circle fill="#FFFFFF" cx="200" cy="200" r="179.5"/>
<g>
	<g>
		<defs>
			<path id="SVGID_1_" d="M304,145.9c0-27-21.9-48.9-48.9-48.9H144.9C117.9,97,96,118.9,96,145.9v110.2
				c0,27,21.898,48.9,48.898,48.9h110.2c27,0,48.899-21.9,48.899-48.9V145.9H304z M200.2,267c-36.602,0-66.2-29.7-66.2-66.2
				c0-36.6,29.7-66.2,66.2-66.2c36.6,0,66.198,29.7,66.198,66.2S236.7,267,200.2,267z M268.6,147.4c-8.5,0-15.398-6.9-15.398-15.4
				s6.898-15.4,15.398-15.4S284,123.5,284,132S277.1,147.4,268.6,147.4z M200.2,157.8c23.698,0,42.898,19.2,42.898,42.9
				S223.9,243.6,200.2,243.6c-23.7,0-42.9-19.199-42.9-42.898C157.3,177.001,176.5,157.8,200.2,157.8z M200,0C89.5,0,0,89.5,0,200
				s89.5,200,200,200s200-89.5,200-200S310.5,0,200,0z M328,253.3c0,40.7-33,73.7-73.7,73.7H146.7C106,327,73,294,73,253.3V145.7
				C73,105,106,72,146.7,72h107.6c40.7,0,73.7,33,73.7,73.7V253.3z"/>
		</defs>
		<clipPath id="SVGID_2_">
			<use xlink:href="#SVGID_1_"  overflow="visible"/>
		</clipPath>
		<g clip-path="url(#SVGID_2_)">
			<g>
				<defs>
					<path id="SVGID_3_" d="M294.485-3.807h-96.048h-96.232H88.146c-25.588,0-48.75,10.372-65.521,27.143
						C14.675,31.285,8.159,40.677,3.51,51.082c-5.155,11.537-8.024,24.32-8.024,37.773v7.37v54.178v87.042v61.285v13.143
						c0,15.633,3.871,30.359,10.705,43.275c4.357,8.227,9.913,15.72,16.436,22.244c16.77,16.771,39.933,27.137,65.521,27.137h14.058
						h96.232h96.048h16.683c25.584,0,48.751-10.366,65.518-27.137c6.526-6.524,12.081-14.019,16.435-22.244
						c6.833-12.916,10.706-27.644,10.706-43.275V298.73v-61.285v-87.042V96.224v-7.37c0-13.453-2.864-26.236-8.022-37.773
						c-4.652-10.405-11.164-19.796-19.117-27.746C359.916,6.564,336.75-3.807,311.165-3.807H294.485z"/>
				</defs>
				<clipPath id="SVGID_4_">
					<use xlink:href="#SVGID_3_"  overflow="visible"/>
				</clipPath>
				<g clip-path="url(#SVGID_4_)">
					<g>
						<g>
							<defs>
								<rect id="SVGID_5_" x="-4.511" y="-3.806" width="408.337" height="408.337"/>
							</defs>
							<clipPath id="SVGID_6_">
								<use xlink:href="#SVGID_5_"  overflow="visible"/>
							</clipPath>
							<g transform="matrix(1 0 0 1 -1.259059e-007 -7.765834e-008)" clip-path="url(#SVGID_6_)">
								
									<image overflow="visible" enable-background="new    " width="854" height="854" xlink:href="67F25E08.jpg"  transform="matrix(0.4783 0 0 0.4783 -4.5115 -3.8057)">
								</image>
							</g>
						</g>
					</g>
				</g>
			</g>
		</g>
	</g>
</g>
</svg>
