<?xml version="1.0" encoding="utf-8"?>
<!-- Generator: Adobe Illustrator 15.0.0, SVG Export Plug-In . SVG Version: 6.00 Build 0)
<!DOCTYPE svg PUBLIC "-//W3C//DTD SVG 1.1//EN" "http://www.w3.org/Graphics/SVG/1.1/DTD/svg11.dtd">  -->
<svg version="1.1" id="Layer_1" xmlns="http://www.w3.org/2000/svg" xmlns:xlink="http://www.w3.org/1999/xlink" x="0px" y="0px"
	 width="60px" height="46px" viewBox="0 0 60 46" enable-background="new 0 0 60 46" xml:space="preserve">
<path d="M23.245,0.842v3.521c-5.038,2.633-8.646,5.381-10.821,8.244c-2.177,2.864-3.264,5.984-3.264,9.362
	c0,2.004,0.286,3.379,0.858,4.123c0.516,0.802,1.144,1.202,1.89,1.202c0.743,0,1.746-0.215,3.005-0.644
	c1.26-0.431,2.406-0.645,3.436-0.645c2.347,0,4.394,0.874,6.141,2.619c1.746,1.746,2.62,3.879,2.62,6.397
	c0,2.747-1.061,5.111-3.177,7.087c-2.119,1.975-4.754,2.963-7.901,2.963c-3.837,0-7.301-1.659-10.393-4.983
	C2.547,36.771,1,32.675,1,27.811c0-5.725,1.904-11.065,5.713-16.019C10.519,6.84,16.031,3.191,23.245,0.842z M54.878,1.099v3.265
	c-5.783,3.322-9.591,6.299-11.423,8.932c-1.833,2.633-2.747,5.725-2.747,9.275c0,1.604,0.313,2.807,0.944,3.607
	c0.629,0.802,1.285,1.201,1.976,1.201c0.63,0,1.573-0.228,2.832-0.686c1.261-0.458,2.52-0.688,3.779-0.688
	c2.347,0,4.395,0.845,6.142,2.532C58.125,30.229,59,32.304,59,34.766c0,2.808-1.103,5.239-3.306,7.303
	c-2.206,2.06-4.91,3.09-8.117,3.09c-3.778,0-7.186-1.632-10.222-4.896C34.32,37,32.805,32.934,32.805,28.067
	c0-6.012,1.917-11.494,5.755-16.447C42.394,6.668,47.837,3.161,54.878,1.099z"/>
</svg>
