<?xml version="1.0" encoding="utf-8"?>
<!-- Generator: Adobe Illustrator 15.0.0, SVG Export Plug-In . SVG Version: 6.00 Build 0)  -->
<!DOCTYPE svg PUBLIC "-//W3C//DTD SVG 1.1//EN" "http://www.w3.org/Graphics/SVG/1.1/DTD/svg11.dtd">
<svg version="1.1" id="Layer_1" xmlns="http://www.w3.org/2000/svg" xmlns:xlink="http://www.w3.org/1999/xlink" x="0px" y="0px"
	 width="400px" height="400px" viewBox="0 0 400 400" style="enable-background:new 0 0 400 400;" xml:space="preserve">
<style type="text/css">
<![CDATA[
	.st0{fill:#FFFFFF;}
]]>
</style>
<path class="st0" d="M304,145.9c0-27-21.9-48.9-48.9-48.9H144.9c-27,0-48.9,21.9-48.9,48.9v110.2c0,27,21.9,48.9,48.9,48.9h110.2
	c27,0,48.9-21.9,48.9-48.9V145.9z M200.2,267c-36.6,0-66.2-29.7-66.2-66.2c0-36.6,29.7-66.2,66.2-66.2c36.6,0,66.2,29.7,66.2,66.2
	S236.7,267,200.2,267z M268.6,147.4c-8.5,0-15.4-6.9-15.4-15.4s6.9-15.4,15.4-15.4S284,123.5,284,132S277.1,147.4,268.6,147.4z
	 M200.2,157.8c23.7,0,42.9,19.2,42.9,42.9c0,23.7-19.2,42.9-42.9,42.9c-23.7,0-42.9-19.2-42.9-42.9
	C157.3,177,176.5,157.8,200.2,157.8z M200,0C89.5,0,0,89.5,0,200s89.5,200,200,200s200-89.5,200-200S310.5,0,200,0z M328,253.3
	c0,40.7-33,73.7-73.7,73.7H146.7C106,327,73,294,73,253.3V145.7C73,105,106,72,146.7,72h107.6c40.7,0,73.7,33,73.7,73.7V253.3z"/>
</svg>
