<svg width="40px" height="40px" viewBox="0 0 188 188" version="1.1" xmlns="http://www.w3.org/2000/svg" xmlns:xlink="http://www.w3.org/1999/xlink" xml:space="preserve" xmlns:serif="http://www.serif.com/" style="fill-rule:evenodd;clip-rule:evenodd;stroke-linejoin:round;stroke-miterlimit:2;"><path d="M75.625,134.531l54.375,-40.781l-54.375,-40.781l0,81.562Zm18.125,-131.406c-50.025,0 -90.625,40.6 -90.625,90.625c0,50.025 40.6,90.625 90.625,90.625c50.025,0 90.625,-40.6 90.625,-90.625c0,-50.025 -40.6,-90.625 -90.625,-90.625Zm0,163.125c-39.966,0 -72.5,-32.534 -72.5,-72.5c0,-39.966 32.534,-72.5 72.5,-72.5c39.966,0 72.5,32.534 72.5,72.5c0,39.966 -32.534,72.5 -72.5,72.5Z" style="fill-rule:nonzero;"/></svg>