<?xml version="1.0" encoding="utf-8"?>
<!-- Generator: Adobe Illustrator 15.0.0, SVG Export Plug-In . SVG Version: 6.00 Build 0)  -->
<!DOCTYPE svg PUBLIC "-//W3C//DTD SVG 1.1//EN" "http://www.w3.org/Graphics/SVG/1.1/DTD/svg11.dtd">
<svg version="1.1" id="Layer_1" xmlns="http://www.w3.org/2000/svg" xmlns:xlink="http://www.w3.org/1999/xlink" x="0px" y="0px"
	 width="400px" height="400px" viewBox="0 0 400 400" enable-background="new 0 0 400 400" xml:space="preserve">
<path fill="#FFFFFF" d="M200,0C89.543,0,0,89.543,0,200s89.543,200,200,200s200-89.543,200-200S310.457,0,200,0z M307.004,145.134
	c0.101,2.363,0.152,4.743,0.152,7.14c0,72.934-55.516,157.042-157.042,157.042c-31.176,0-60.19-9.132-84.614-24.795
	c4.32,0.522,8.71,0.776,13.166,0.776c25.858,0,49.657-8.828,68.545-23.631c-24.153-0.438-44.544-16.407-51.565-38.332
	c3.359,0.641,6.819,0.995,10.381,0.995c5.03,0,9.766-0.675,14.391-1.94C95.165,217.326,76,195.012,76,168.275
	c0-0.236,0-0.455,0-0.692c8,4.135,16.094,6.617,25.157,6.903c-14.819-9.908-24.487-26.804-24.487-45.944
	c0-10.111,2.753-19.58,7.497-27.731c27.225,33.386,67.921,55.363,113.798,57.642c-0.945-4.035-1.426-8.254-1.426-12.575
	c0-30.484,24.715-55.194,55.197-55.194c15.884,0,30.233,6.7,40.294,17.436c12.558-2.465,24.373-7.056,35.042-13.385
	c-4.119,12.895-12.879,23.697-24.272,30.533c11.157-1.333,21.809-4.304,31.7-8.692C327.106,127.648,317.738,137.37,307.004,145.134z
	"/>
</svg>
