<?xml version="1.0" encoding="utf-8"?>
<!-- Generator: Adobe Illustrator 15.0.0, SVG Export Plug-In . SVG Version: 6.00 Build 0)
<!DOCTYPE svg PUBLIC "-//W3C//DTD SVG 1.1//EN" "http://www.w3.org/Graphics/SVG/1.1/DTD/svg11.dtd">  -->
<svg version="1.1" id="Layer_1" xmlns="http://www.w3.org/2000/svg" xmlns:xlink="http://www.w3.org/1999/xlink" x="0px" y="0px"
	 width="60px" height="46px" viewBox="0 0 60 46" enable-background="new 0 0 60 46" xml:space="preserve">
<path d="M36.756,45.157v-3.521c5.038-2.633,8.646-5.381,10.82-8.244c2.178-2.863,3.264-5.984,3.264-9.362
	c0-2.003-0.286-3.379-0.858-4.122c-0.516-0.802-1.144-1.202-1.89-1.202c-0.743,0-1.746,0.215-3.005,0.644
	c-1.26,0.431-2.406,0.645-3.436,0.645c-2.348,0-4.395-0.874-6.142-2.619c-1.745-1.746-2.619-3.879-2.619-6.397
	c0-2.747,1.061-5.111,3.177-7.087c2.119-1.975,4.754-2.963,7.901-2.963c3.837,0,7.301,1.659,10.394,4.983
	C57.453,9.229,59,13.325,59,18.189c0,5.725-1.903,11.065-5.713,16.019C49.481,39.159,43.969,42.809,36.756,45.157z M5.122,44.9
	v-3.265c5.783-3.321,9.591-6.299,11.423-8.932c1.833-2.633,2.747-5.726,2.747-9.275c0-1.604-0.313-2.807-0.944-3.607
	c-0.629-0.802-1.285-1.201-1.976-1.201c-0.63,0-1.573,0.228-2.832,0.686c-1.261,0.458-2.52,0.688-3.779,0.688
	c-2.347,0-4.395-0.845-6.142-2.532C1.875,15.771,1,13.696,1,11.234c0-2.808,1.103-5.239,3.306-7.303
	c2.206-2.06,4.91-3.09,8.117-3.09c3.778,0,7.186,1.632,10.222,4.896C25.68,9,27.195,13.066,27.195,17.933
	c0,6.012-1.917,11.494-5.755,16.446C17.606,39.331,12.163,42.839,5.122,44.9z"/>
</svg>
