
<?xml version="1.0" encoding="UTF-8" standalone="no"?>
<!DOCTYPE svg PUBLIC "-//W3C//DTD SVG 1.1//EN" "http://www.w3.org/Graphics/SVG/1.1/DTD/svg11.dtd">
<svg width="100%" height="100%" viewBox="0 0 87 30" version="1.1" xmlns="http://www.w3.org/2000/svg" xmlns:xlink="http://www.w3.org/1999/xlink" xml:space="preserve" xmlns:serif="http://www.serif.com/" style="fill-rule:evenodd;clip-rule:evenodd;stroke-linejoin:round;stroke-miterlimit:2;">
    <g id="PINTEREST" transform="matrix(1,0,0,1,9.73909,-1.93456e-14)">
        <g transform="matrix(1.35179,0,0,1.45621,-9.48649,0.208333)">
            <path d="M64.172,10.158C64.172,15.843 59.2,20.458 53.076,20.458L10.91,20.458C4.785,20.458 -0.187,15.843 -0.187,10.158C-0.187,4.473 4.785,-0.143 10.91,-0.143L53.076,-0.143C59.2,-0.143 64.172,4.473 64.172,10.158Z" style="fill:rgb(230,0,35);"/>
        </g>
        <g transform="matrix(0.2,0,0,0.2,15.0006,25)">
            <path d="M0,-100C-27.614,-100 -50,-77.613 -50,-50C-50,-29.529 -37.691,-11.943 -20.074,-4.205C-20.215,-7.692 -20.099,-11.888 -19.206,-15.68C-18.243,-19.739 -12.77,-42.933 -12.77,-42.933C-12.77,-42.933 -14.37,-46.123 -14.37,-50.837C-14.37,-58.25 -10.071,-63.784 -4.725,-63.784C-0.178,-63.784 2.018,-60.371 2.018,-56.277C2.018,-51.712 -0.898,-44.867 -2.396,-38.531C-3.651,-33.224 0.265,-28.898 5.494,-28.898C14.966,-28.898 21.347,-41.072 21.347,-55.488C21.347,-66.444 13.964,-74.647 0.543,-74.647C-14.625,-74.647 -24.07,-63.337 -24.07,-50.698C-24.07,-46.344 -22.787,-43.277 -20.773,-40.893C-19.852,-39.807 -19.722,-39.357 -20.057,-38.105C-20.299,-37.186 -20.849,-34.971 -21.075,-34.096C-21.406,-32.834 -22.435,-32.375 -23.577,-32.854C-30.565,-35.695 -33.818,-43.352 -33.818,-51.945C-33.818,-66.145 -21.839,-83.175 1.915,-83.175C21.006,-83.175 33.572,-69.363 33.572,-54.539C33.572,-34.925 22.671,-20.275 6.587,-20.275C1.194,-20.275 -3.884,-23.187 -5.624,-26.508C-5.624,-26.508 -8.53,-14.984 -9.139,-12.76C-10.203,-8.908 -12.278,-5.051 -14.175,-2.049C-9.678,-0.726 -4.927,0 0,0C27.602,0 49.994,-22.387 49.994,-50C49.994,-77.613 27.602,-100 0,-100" style="fill:white;fill-rule:nonzero;"/>
        </g>
        <g transform="matrix(1.5,0,0,1.5,-4.49926,0.879394)">
            <path d="M24.999,14.572L24.999,4.255L28.342,4.255C29.609,4.255 30.434,4.307 30.819,4.41C31.41,4.565 31.905,4.901 32.304,5.42C32.703,5.938 32.902,6.608 32.902,7.429C32.902,8.063 32.787,8.595 32.557,9.027C32.328,9.458 32.035,9.797 31.681,10.044C31.327,10.29 30.967,10.453 30.601,10.533C30.104,10.631 29.384,10.68 28.44,10.68L27.082,10.68L27.082,14.572L24.999,14.572ZM27.082,6.001L27.082,8.928L28.222,8.928C29.043,8.928 29.592,8.874 29.869,8.766C30.146,8.658 30.363,8.489 30.52,8.26C30.677,8.03 30.756,7.762 30.756,7.457C30.756,7.082 30.646,6.772 30.425,6.528C30.205,6.284 29.925,6.132 29.588,6.071C29.339,6.024 28.839,6.001 28.089,6.001L27.082,6.001Z" style="fill:white;fill-rule:nonzero;"/>
            <path d="M34.238,6.085L34.238,4.255L36.216,4.255L36.216,6.085L34.238,6.085ZM34.238,14.572L34.238,7.098L36.216,7.098L36.216,14.572L34.238,14.572Z" style="fill:white;fill-rule:nonzero;"/>
            <path d="M44.68,14.572L42.703,14.572L42.703,10.758C42.703,9.951 42.661,9.429 42.576,9.192C42.492,8.955 42.354,8.771 42.164,8.64C41.974,8.508 41.746,8.443 41.478,8.443C41.136,8.443 40.828,8.536 40.556,8.724C40.284,8.912 40.098,9.16 39.997,9.47C39.896,9.78 39.846,10.352 39.846,11.187L39.846,14.572L37.868,14.572L37.868,7.098L39.705,7.098L39.705,8.196C40.357,7.352 41.178,6.929 42.168,6.929C42.604,6.929 43.003,7.008 43.364,7.165C43.726,7.322 43.999,7.523 44.184,7.767C44.369,8.011 44.499,8.288 44.571,8.597C44.644,8.907 44.68,9.35 44.68,9.927L44.68,14.572Z" style="fill:white;fill-rule:nonzero;"/>
        </g>
    </g>
</svg>