<?xml version="1.0" encoding="UTF-8" standalone="no"?>
<!DOCTYPE svg PUBLIC "-//W3C//DTD SVG 1.1//EN" "http://www.w3.org/Graphics/SVG/1.1/DTD/svg11.dtd">
<svg width="100%" height="100%" viewBox="0 0 30 30" version="1.1" xmlns="http://www.w3.org/2000/svg" xmlns:xlink="http://www.w3.org/1999/xlink" xml:space="preserve" xmlns:serif="http://www.serif.com/" style="fill-rule:evenodd;clip-rule:evenodd;stroke-linejoin:round;stroke-miterlimit:2;">
    <g id="PINTEREST" transform="matrix(1,0,0,1,-11.8808,8.60423e-16)">
        <g transform="matrix(0.466133,0,0,1.45621,11.9679,0.208333)">
            <path d="M64.172,10.158C64.172,15.843 49.753,20.458 31.993,20.458C14.232,20.458 -0.187,15.843 -0.187,10.158C-0.187,4.473 14.232,-0.143 31.993,-0.143C49.753,-0.143 64.172,4.473 64.172,10.158Z" style="fill:rgb(230,0,35);"/>
        </g>
        <g transform="matrix(0.2,0,0,0.2,26.8814,25)">
            <path d="M0,-100C-27.614,-100 -50,-77.613 -50,-50C-50,-29.529 -37.691,-11.943 -20.074,-4.205C-20.215,-7.692 -20.099,-11.888 -19.206,-15.68C-18.243,-19.739 -12.77,-42.933 -12.77,-42.933C-12.77,-42.933 -14.37,-46.123 -14.37,-50.837C-14.37,-58.25 -10.071,-63.784 -4.725,-63.784C-0.178,-63.784 2.018,-60.371 2.018,-56.277C2.018,-51.712 -0.898,-44.867 -2.396,-38.531C-3.651,-33.224 0.265,-28.898 5.494,-28.898C14.966,-28.898 21.347,-41.072 21.347,-55.488C21.347,-66.444 13.964,-74.647 0.543,-74.647C-14.625,-74.647 -24.07,-63.337 -24.07,-50.698C-24.07,-46.344 -22.787,-43.277 -20.773,-40.893C-19.852,-39.807 -19.722,-39.357 -20.057,-38.105C-20.299,-37.186 -20.849,-34.971 -21.075,-34.096C-21.406,-32.834 -22.435,-32.375 -23.577,-32.854C-30.565,-35.695 -33.818,-43.352 -33.818,-51.945C-33.818,-66.145 -21.839,-83.175 1.915,-83.175C21.006,-83.175 33.572,-69.363 33.572,-54.539C33.572,-34.925 22.671,-20.275 6.587,-20.275C1.194,-20.275 -3.884,-23.187 -5.624,-26.508C-5.624,-26.508 -8.53,-14.984 -9.139,-12.76C-10.203,-8.908 -12.278,-5.051 -14.175,-2.049C-9.678,-0.726 -4.927,0 0,0C27.602,0 49.994,-22.387 49.994,-50C49.994,-77.613 27.602,-100 0,-100" style="fill:white;fill-rule:nonzero;"/>
        </g>
    </g>
</svg>
