<?xml version="1.0" encoding="UTF-8" standalone="no"?>
<!DOCTYPE svg PUBLIC "-//W3C//DTD SVG 1.1//EN" "http://www.w3.org/Graphics/SVG/1.1/DTD/svg11.dtd">
<svg width="100%" height="100%" viewBox="0 0 114 30" version="1.1" xmlns="http://www.w3.org/2000/svg" xmlns:xlink="http://www.w3.org/1999/xlink" xml:space="preserve" xmlns:serif="http://www.serif.com/" style="fill-rule:evenodd;clip-rule:evenodd;stroke-linejoin:round;stroke-miterlimit:2;">
    <g id="X" transform="matrix(1,0,0,1,5.33874,8.60423e-16)">
        <g transform="matrix(1.77131,0,0,1.45621,-5.00776,0.208333)">
            <path d="M64.172,10.158C64.172,15.843 60.378,20.458 55.704,20.458L8.281,20.458C3.608,20.458 -0.187,15.843 -0.187,10.158C-0.187,4.473 3.608,-0.143 8.281,-0.143L55.704,-0.143C60.378,-0.143 64.172,4.473 64.172,10.158Z"/>
        </g>
        <g transform="matrix(0.0163083,0,0,0.0163083,9.48925,4.99928)">
            <path d="M714.163,519.284L1160.89,0L1055.03,0L667.137,450.887L357.328,0L0,0L468.492,681.821L0,1226.37L105.866,1226.37L515.491,750.218L842.672,1226.37L1200,1226.37L714.137,519.284L714.163,519.284ZM569.165,687.828L521.697,619.934L144.011,79.694L306.615,79.694L611.412,515.685L658.88,583.579L1055.08,1150.3L892.476,1150.3L569.165,687.854L569.165,687.828Z" style="fill:white;fill-rule:nonzero;"/>
        </g>
        <g transform="matrix(1.5,0,0,1.5,0.668985,0.752718)">
            <path d="M27.321,14.572L27.321,6.001L24.26,6.001L24.26,4.255L32.459,4.255L32.459,6.001L29.405,6.001L29.405,14.572L27.321,14.572Z" style="fill:white;fill-rule:nonzero;"/>
            <path d="M33.752,14.572L31.388,7.098L33.309,7.098L34.71,11.997L35.997,7.098L37.905,7.098L39.15,11.997L40.579,7.098L42.528,7.098L40.128,14.572L38.228,14.572L36.94,9.766L35.674,14.572L33.752,14.572Z" style="fill:white;fill-rule:nonzero;"/>
            <path d="M47.538,12.194L49.508,12.524C49.255,13.247 48.855,13.797 48.308,14.175C47.762,14.552 47.078,14.741 46.257,14.741C44.957,14.741 43.995,14.317 43.371,13.467C42.879,12.787 42.632,11.928 42.632,10.892C42.632,9.653 42.956,8.683 43.604,7.982C44.251,7.28 45.07,6.929 46.06,6.929C47.172,6.929 48.049,7.297 48.692,8.031C49.334,8.765 49.642,9.89 49.614,11.405L44.659,11.405C44.673,11.992 44.833,12.448 45.138,12.774C45.443,13.1 45.823,13.263 46.278,13.263C46.587,13.263 46.848,13.179 47.059,13.01C47.27,12.841 47.43,12.569 47.538,12.194ZM47.65,10.195C47.636,9.623 47.488,9.187 47.207,8.889C46.925,8.592 46.583,8.443 46.179,8.443C45.748,8.443 45.391,8.6 45.11,8.914C44.828,9.228 44.69,9.655 44.694,10.195L47.65,10.195Z" style="fill:white;fill-rule:nonzero;"/>
            <path d="M55.193,12.194L57.164,12.524C56.91,13.247 56.51,13.797 55.964,14.175C55.417,14.552 54.733,14.741 53.912,14.741C52.613,14.741 51.651,14.317 51.027,13.467C50.534,12.787 50.288,11.928 50.288,10.892C50.288,9.653 50.612,8.683 51.259,7.982C51.906,7.28 52.725,6.929 53.715,6.929C54.827,6.929 55.704,7.297 56.347,8.031C56.99,8.765 57.297,9.89 57.269,11.405L52.315,11.405C52.329,11.992 52.488,12.448 52.793,12.774C53.098,13.1 53.478,13.263 53.933,13.263C54.243,13.263 54.503,13.179 54.714,13.01C54.926,12.841 55.085,12.569 55.193,12.194ZM55.306,10.195C55.292,9.623 55.144,9.187 54.862,8.889C54.581,8.592 54.238,8.443 53.835,8.443C53.403,8.443 53.047,8.6 52.765,8.914C52.484,9.228 52.345,9.655 52.35,10.195L55.306,10.195Z" style="fill:white;fill-rule:nonzero;"/>
            <path d="M61.948,7.098L61.948,8.675L60.596,8.675L60.596,11.687C60.596,12.297 60.609,12.652 60.635,12.753C60.661,12.854 60.72,12.937 60.811,13.003C60.903,13.069 61.014,13.101 61.145,13.101C61.328,13.101 61.593,13.038 61.941,12.911L62.11,14.446C61.65,14.643 61.129,14.741 60.547,14.741C60.191,14.741 59.869,14.681 59.583,14.562C59.297,14.442 59.087,14.287 58.953,14.097C58.819,13.907 58.727,13.65 58.675,13.327C58.633,13.097 58.612,12.632 58.612,11.933L58.612,8.675L57.704,8.675L57.704,7.098L58.612,7.098L58.612,5.613L60.596,4.459L60.596,7.098L61.948,7.098Z" style="fill:white;fill-rule:nonzero;"/>
        </g>
    </g>
</svg>
