<?xml version="1.0" encoding="UTF-8" standalone="no"?>
<!DOCTYPE svg PUBLIC "-//W3C//DTD SVG 1.1//EN" "http://www.w3.org/Graphics/SVG/1.1/DTD/svg11.dtd">
<svg width="100%" height="100%" viewBox="0 0 30 30" version="1.1" xmlns="http://www.w3.org/2000/svg" xmlns:xlink="http://www.w3.org/1999/xlink" xml:space="preserve" xmlns:serif="http://www.serif.com/" style="fill-rule:evenodd;clip-rule:evenodd;stroke-linejoin:round;stroke-miterlimit:2;">
    <g id="X" transform="matrix(1,0,0,1,-23.0753,8.60423e-16)">
        <g transform="matrix(0.466133,0,0,1.45621,23.1624,0.208333)">
            <path d="M64.172,10.158C64.172,15.843 49.753,20.458 31.993,20.458C14.232,20.458 -0.187,15.843 -0.187,10.158C-0.187,4.473 14.232,-0.143 31.993,-0.143C49.753,-0.143 64.172,4.473 64.172,10.158Z"/>
        </g>
        <g transform="matrix(0.0163083,0,0,0.0163083,28.2903,4.99928)">
            <path d="M714.163,519.284L1160.89,0L1055.03,0L667.137,450.887L357.328,0L0,0L468.492,681.821L0,1226.37L105.866,1226.37L515.491,750.218L842.672,1226.37L1200,1226.37L714.137,519.284L714.163,519.284ZM569.165,687.828L521.697,619.934L144.011,79.694L306.615,79.694L611.412,515.685L658.88,583.579L1055.08,1150.3L892.476,1150.3L569.165,687.854L569.165,687.828Z" style="fill:white;fill-rule:nonzero;"/>
        </g>
    </g>
</svg>
